# xmcd
#
# Track frame offsets:
#	150
#	15084
#	26922
#	41920
#	54080
#	72325
#	85472
#	105391
#	119115
#	138285
#	151425
#	167660
#	184326
#	195874
#
# Disc length: 2814 seconds
#
# Revision: 1
# Processed by: cddbd v1.5.2PL0 Copyright (c) Steve Scherf et al.
# Submitted via: audiograbber 1.83.01
#
DISCID=b60afc0e
DTITLE=Ashley Bee - Excuse Me Ashley Bee
DYEAR=2001
DGENRE=Country
TTITLE0=Excuse Me
TTITLE1=Diden´t I
TTITLE2=Angel
TTITLE3=Hey Good Looking
TTITLE4=He Showed Me The Way
TTITLE5=Good Morning And Goodbye Blues
TTITLE6=Where Does It Hurt
TTITLE7=Cowboy Cute, Cowgirl Crazy
TTITLE8=Before The Next Teardrop Falls
TTITLE9=I´ve Got A Tiger By The Tail
TTITLE10=Boy, I Need A Man
TTITLE11=Life Is A Sad Song
TTITLE12=A Rendezvous With Destiny
TTITLE13=Before The Next Teardrop Falls
EXTD=
EXTT0=
EXTT1=
EXTT2=
EXTT3=
EXTT4=
EXTT5=
EXTT6=
EXTT7=
EXTT8=
EXTT9=
EXTT10=
EXTT11=
EXTT12=
EXTT13=
PLAYORDER=
